<svg xmlns="http://www.w3.org/2000/svg" width="136" height="28" viewBox="0 0 102.48 20.62">
  <defs>
    <style>.cls-1{fill:#00bee5;}.cls-2{fill:#fff;}</style>
  </defs>
  <title>Asset 4</title>
  <g id="Layer_2" data-name="Layer 2">
    <g id="Layer_1-2" data-name="Layer 1">
      <text/>
      <path class="cls-1" d="M35.69,10.68H30.81a.73.73,0,0,1-.57-.29C29.37,9.3,24.71,3.85,18.3,3.85S7,9.32,6.07,10.41a.76.76,0,0,1-.57.27H.9a.13.13,0,0,1-.13-.14.13.13,0,0,1,.13-.13H5.5a.53.53,0,0,0,.37-.17c.93-1.12,5.9-6.65,12.43-6.65s11.26,5.53,12.14,6.64a.49.49,0,0,0,.37.18h4.88a.13.13,0,0,1,.13.13A.13.13,0,0,1,35.69,10.68Z"/>
      <path class="cls-1" d="M18.3,14.18c-6.53,0-11.5-5.54-12.43-6.65a.5.5,0,0,0-.37-.17H.9a.13.13,0,0,1-.13-.14A.13.13,0,0,1,.9,7.09H5.5a.78.78,0,0,1,.57.26c.91,1.1,5.82,6.56,12.23,6.56S29.37,8.46,30.24,7.37a.72.72,0,0,1,.57-.28h4.88a.13.13,0,0,1,.13.13.13.13,0,0,1-.13.14H30.81a.46.46,0,0,0-.37.18C29.56,8.65,24.83,14.18,18.3,14.18Z"/>
      <path class="cls-1" d="M6.06,12.18H2.52a.13.13,0,0,1-.13-.13.13.13,0,0,1,.13-.14H6.06a.28.28,0,0,0,.2-.08L9,9.14a.32.32,0,0,0,.08-.21A.27.27,0,0,0,9,8.72L6.17,5.94A.32.32,0,0,0,6,5.86H2.52a.13.13,0,0,1-.13-.14.13.13,0,0,1,.13-.13H6a.55.55,0,0,1,.38.16L9.19,8.52a.57.57,0,0,1,.17.41.56.56,0,0,1-.17.4L6.44,12A.52.52,0,0,1,6.06,12.18Z"/>
      <path class="cls-1" d="M9.08,7.46a.11.11,0,0,1-.09,0L6,4.4a.36.36,0,0,0-.26-.11H.9a.13.13,0,0,1-.13-.14A.13.13,0,0,1,.9,4H5.78a.64.64,0,0,1,.45.19l2.94,3a.12.12,0,0,1,0,.19A.11.11,0,0,1,9.08,7.46Z"/>
      <path class="cls-1" d="M5.78,13.77H.9a.13.13,0,0,1-.13-.14A.13.13,0,0,1,.9,13.5H5.78A.36.36,0,0,0,6,13.39l3-3a.11.11,0,0,1,.18,0,.12.12,0,0,1,0,.19l-2.94,3A.64.64,0,0,1,5.78,13.77Z"/>
      <ellipse class="cls-1" cx="0.55" cy="4.15" rx="0.55" ry="0.56"/>
      <ellipse class="cls-1" cx="2.06" cy="5.72" rx="0.55" ry="0.56"/>
      <ellipse class="cls-1" cx="2.06" cy="12.05" rx="0.55" ry="0.56"/>
      <ellipse class="cls-1" cx="0.55" cy="7.26" rx="0.55" ry="0.56"/>
      <ellipse class="cls-1" cx="0.55" cy="10.54" rx="0.55" ry="0.56"/>
      <ellipse class="cls-1" cx="0.55" cy="13.63" rx="0.55" ry="0.56"/>
      <path class="cls-1" d="M34,12.18H30.43a.54.54,0,0,1-.38-.15l-2.74-2.7a.56.56,0,0,1-.17-.4.57.57,0,0,1,.17-.41l2.83-2.77a.57.57,0,0,1,.38-.16H34a.13.13,0,0,1,.14.13.14.14,0,0,1-.14.14H30.52a.27.27,0,0,0-.19.08L27.49,8.72a.27.27,0,0,0-.09.21.29.29,0,0,0,.09.21l2.74,2.69a.32.32,0,0,0,.2.08H34a.14.14,0,0,1,.14.14A.13.13,0,0,1,34,12.18Z"/>
      <path class="cls-1" d="M27.41,7.46a.12.12,0,0,1-.09,0,.14.14,0,0,1,0-.19l2.94-3A.66.66,0,0,1,30.72,4h4.87a.13.13,0,0,1,.14.13.14.14,0,0,1-.14.14H30.72a.39.39,0,0,0-.27.11l-2.94,3A.13.13,0,0,1,27.41,7.46Z"/>
      <path class="cls-1" d="M35.59,13.77H30.72a.66.66,0,0,1-.46-.19l-2.94-3a.14.14,0,0,1,0-.19.12.12,0,0,1,.19,0l2.94,3a.39.39,0,0,0,.27.11h4.87a.13.13,0,0,1,.14.13A.14.14,0,0,1,35.59,13.77Z"/>
      <ellipse class="cls-1" cx="35.94" cy="4.15" rx="0.55" ry="0.56"/>
      <ellipse class="cls-1" cx="34.44" cy="5.72" rx="0.55" ry="0.56"/>
      <ellipse class="cls-1" cx="34.44" cy="12.05" rx="0.55" ry="0.56"/>
      <ellipse class="cls-1" cx="35.94" cy="7.26" rx="0.55" ry="0.56"/>
      <ellipse class="cls-1" cx="35.94" cy="10.54" rx="0.55" ry="0.56"/>
      <ellipse class="cls-1" cx="35.94" cy="13.63" rx="0.55" ry="0.56"/>
      <path class="cls-1" d="M18.3,14.24a5.27,5.27,0,0,1-5.2-5.31,5.21,5.21,0,1,1,10.41,0A5.27,5.27,0,0,1,18.3,14.24Zm0-10.36a5,5,0,1,0,4.95,5.05A5,5,0,0,0,18.3,3.88Z"/>
      <path class="cls-1" d="M18.3,11.83a2.9,2.9,0,1,1,2.85-2.9A2.88,2.88,0,0,1,18.3,11.83Zm0-5.54a2.64,2.64,0,1,0,2.58,2.64A2.61,2.61,0,0,0,18.3,6.29Z"/>
      <path class="cls-1" d="M18.3,10a1.07,1.07,0,0,1,0-2.13,1.07,1.07,0,0,1,0,2.13Zm0-1.86a.8.8,0,1,0,.79.8A.79.79,0,0,0,18.3,8.13Z"/>
      <path class="cls-1" d="M18.3,11a2,2,0,0,1-.92-.23l-.05,0,0,0a2.1,2.1,0,0,1-.57-.5.14.14,0,0,1,.21-.17,1.87,1.87,0,0,0,.49.44s0,0,0,0h.05a1.72,1.72,0,0,0,.8.2l.29,0a.12.12,0,0,1,.15.11.13.13,0,0,1-.11.15Zm1-.27a.13.13,0,0,1-.11-.06.14.14,0,0,1,.05-.19l.08-.05a.13.13,0,0,1,.18,0,.14.14,0,0,1,0,.19l-.09.06Zm.83-1h0A.13.13,0,0,1,20,9.58a1.82,1.82,0,0,0,.12-.65.13.13,0,0,1,0-.06.07.07,0,0,1,0,0,1.81,1.81,0,0,0-.4-1,.13.13,0,0,1,0-.19.12.12,0,0,1,.18,0,2,2,0,0,1,.46,1.2.07.07,0,0,1,0,0,.13.13,0,0,1,0,.06h0a2.15,2.15,0,0,1-.13.75A.13.13,0,0,1,20.09,9.76Zm-3.7-.59A.13.13,0,0,1,16.26,9V8.93a.13.13,0,0,1,.13-.13h0a.13.13,0,0,1,.13.13V9a.13.13,0,0,1-.12.14Zm.12-.81h0a.13.13,0,0,1-.08-.17,2.05,2.05,0,0,1,.79-1l.06,0,0,0a1.91,1.91,0,0,1,.7-.26.13.13,0,0,1,.15.11.14.14,0,0,1-.11.16,1.66,1.66,0,0,0-.61.22l-.05,0,0,0a1.82,1.82,0,0,0-.69.88A.13.13,0,0,1,16.51,8.36Zm2.75-1h-.07l-.08,0a.13.13,0,1,1,.12-.24l.09.05a.13.13,0,0,1,.05.19A.13.13,0,0,1,19.26,7.36Z"/>
      <path class="cls-1" d="M18.31,13.25a4.24,4.24,0,0,1-2.12-.57.19.19,0,0,1-.07-.25.18.18,0,0,1,.24-.06,3.89,3.89,0,0,0,1.94.52h0a.18.18,0,0,1,.17.18.17.17,0,0,1-.17.18v0Zm1.05-.14a.17.17,0,0,1-.17-.13.19.19,0,0,1,.12-.22,4,4,0,0,0,1.75-1,.18.18,0,0,1,.25,0,.2.2,0,0,1,0,.25,4.31,4.31,0,0,1-1.9,1.13ZM15.43,12a.15.15,0,0,1-.12,0,4.33,4.33,0,0,1-1.1-1.94.18.18,0,1,1,.34-.09,3.92,3.92,0,0,0,1,1.78.18.18,0,0,1,0,.25A.17.17,0,0,1,15.43,12Zm6.4-.86-.09,0a.18.18,0,0,1-.07-.24,4,4,0,0,0,.52-2v0a.18.18,0,0,1,.36,0h0A4.42,4.42,0,0,1,22,11.09.16.16,0,0,1,21.83,11.18ZM14.24,9.11a.18.18,0,0,1-.18-.18h0a4.38,4.38,0,0,1,.57-2.16.18.18,0,0,1,.24-.07.19.19,0,0,1,.06.25,4,4,0,0,0-.52,2A.17.17,0,0,1,14.24,9.11Zm8-1.09a.18.18,0,0,1-.17-.14,4.08,4.08,0,0,0-1-1.77.18.18,0,0,1,0-.25.18.18,0,0,1,.25,0A4.36,4.36,0,0,1,22.4,7.79a.18.18,0,0,1-.13.22ZM15.42,6.18a.18.18,0,0,1-.12,0,.19.19,0,0,1,0-.26,4.18,4.18,0,0,1,1.9-1.12.17.17,0,0,1,.21.12.17.17,0,0,1-.12.22,3.89,3.89,0,0,0-1.74,1A.21.21,0,0,1,15.42,6.18Zm4.91-.67-.09,0A3.89,3.89,0,0,0,18.3,5h0a.18.18,0,0,1,0-.36h0a4.2,4.2,0,0,1,2.11.57.18.18,0,0,1,.07.25A.19.19,0,0,1,20.33,5.51Z"/>
      <path class="cls-1" d="M29,5.86H27.71a.93.93,0,0,1-.6-.21A15.35,15.35,0,0,0,18.3,2.4,15.78,15.78,0,0,0,9.38,5.66a1,1,0,0,1-.59.2H7.52V5.59H8.79a.74.74,0,0,0,.43-.14A16,16,0,0,1,18.3,2.13a15.52,15.52,0,0,1,9,3.31.71.71,0,0,0,.44.15H29Z"/>
      <path class="cls-1" d="M18.3,15.63a16.1,16.1,0,0,1-9.08-3.31.66.66,0,0,0-.43-.15H7.52V11.9H8.79a1,1,0,0,1,.59.2,15.71,15.71,0,0,0,8.92,3.26,15.35,15.35,0,0,0,8.81-3.25,1,1,0,0,1,.6-.21H29v.27H27.71a.78.78,0,0,0-.44.15A15.52,15.52,0,0,1,18.3,15.63Z"/>
      <path class="cls-1" d="M17.68,3.85a.13.13,0,0,1-.13-.13V2.05a.38.38,0,0,0-.38-.38H12.91a.13.13,0,0,1-.13-.13.13.13,0,0,1,.13-.14h4.26a.64.64,0,0,1,.64.65V3.72A.13.13,0,0,1,17.68,3.85Z"/>
      <ellipse class="cls-1" cx="12.91" cy="1.54" rx="0.55" ry="0.56"/>
      <path class="cls-1" d="M19,3.85a.13.13,0,0,1-.13-.13V2.05a.64.64,0,0,1,.63-.65h4.26a.13.13,0,0,1,.13.14.13.13,0,0,1-.13.13H19.46a.38.38,0,0,0-.37.38V3.72A.13.13,0,0,1,19,3.85Z"/>
      <ellipse class="cls-1" cx="23.72" cy="1.54" rx="0.55" ry="0.56"/>
      <path class="cls-1" d="M18.3,3.88a.13.13,0,0,1-.13-.13V.88A.13.13,0,0,1,18.3.75a.13.13,0,0,1,.14.13V3.75A.13.13,0,0,1,18.3,3.88Z"/>
      <ellipse class="cls-1" cx="18.3" cy="0.56" rx="0.55" ry="0.56"/>
      <path class="cls-1" d="M17.17,16.39H12.91a.13.13,0,0,1-.13-.13.13.13,0,0,1,.13-.14h4.26a.38.38,0,0,0,.38-.38V14.07a.13.13,0,0,1,.26,0v1.67A.64.64,0,0,1,17.17,16.39Z"/>
      <ellipse class="cls-1" cx="12.91" cy="16.26" rx="0.55" ry="0.56"/>
      <path class="cls-1" d="M23.72,16.39H19.46a.64.64,0,0,1-.63-.65V14.07a.13.13,0,0,1,.13-.13.13.13,0,0,1,.13.13v1.67a.38.38,0,0,0,.37.38h4.26a.13.13,0,0,1,.13.14A.13.13,0,0,1,23.72,16.39Z"/>
      <ellipse class="cls-1" cx="23.72" cy="16.26" rx="0.55" ry="0.56"/>
      <path class="cls-1" d="M18.3,17.05a.13.13,0,0,1-.13-.14V14a.13.13,0,0,1,.13-.13.13.13,0,0,1,.14.13v2.87A.14.14,0,0,1,18.3,17.05Z"/>
      <ellipse class="cls-1" cx="18.3" cy="17.23" rx="0.55" ry="0.56"/>
      <path class="cls-2" d="M41.64,4.86v10.4c0,.21-.1.32-.29.32a.29.29,0,0,1-.32-.32V4.56a.31.31,0,0,1,.09-.22.29.29,0,0,1,.23-.09H45a5.8,5.8,0,0,1,1.22.12,2.61,2.61,0,0,1,1,.41,2.06,2.06,0,0,1,.61.78A3,3,0,0,1,48,6.79c0,1.73-1,2.59-2.9,2.59h-.57a.29.29,0,0,1-.22-.09.28.28,0,0,1-.1-.22.24.24,0,0,1,.1-.21.29.29,0,0,1,.22-.09h.57a2.94,2.94,0,0,0,1.68-.42,1.76,1.76,0,0,0,.62-1.56,2.24,2.24,0,0,0-.18-1,1.43,1.43,0,0,0-.49-.59A1.92,1.92,0,0,0,46,4.94a5.05,5.05,0,0,0-1-.08Zm5.06,9.38a.24.24,0,0,1,0,.22.28.28,0,0,1-.12.2.26.26,0,0,1-.18.05.28.28,0,0,1-.24-.14l-3.57-5.3a.27.27,0,0,1,.1-.42.2.2,0,0,1,.16-.06.36.36,0,0,1,.26.13ZM43,11.77a.26.26,0,0,1,.29.29v3.2c0,.21-.1.32-.29.32a.33.33,0,0,1-.23-.09.29.29,0,0,1-.09-.23v-3.2a.29.29,0,0,1,.09-.21A.38.38,0,0,1,43,11.77Zm3.16-1,3,4.36a.27.27,0,0,1-.08.42.25.25,0,0,1-.16.06.32.32,0,0,1-.26-.13l-3.27-4.82a.25.25,0,0,1,0-.31.29.29,0,0,1,.27-.17A4,4,0,0,0,47,9.91a3,3,0,0,0,1.1-.68,2.87,2.87,0,0,0,.71-1.06,3.74,3.74,0,0,0,.25-1.42,3.24,3.24,0,0,0-.88-2.55,3.81,3.81,0,0,0-2.6-.78H43c-.19,0-.29-.1-.29-.31a.26.26,0,0,1,.29-.3h2.61a4.41,4.41,0,0,1,3,.95,3.81,3.81,0,0,1,1.07,3,3.89,3.89,0,0,1-1,2.73A4.15,4.15,0,0,1,46.13,10.74Zm1,4.19a.28.28,0,0,1,.2.16.36.36,0,0,1,0,.27h0a.28.28,0,0,1-.31.22.43.43,0,0,1-.27-.18.28.28,0,0,1,0-.25h0a.31.31,0,0,1,.31-.22Z"/>
      <path class="cls-2" d="M52.9,8.7a.29.29,0,0,1-.22-.09.28.28,0,0,1-.1-.22V3a.27.27,0,0,1,.1-.22.3.3,0,0,1,.22-.1.3.3,0,0,1,.21.1.33.33,0,0,1,.08.22V8.09h4.73a.31.31,0,0,1,.22.09.26.26,0,0,1,.09.21.31.31,0,0,1-.31.31Zm0,7a.29.29,0,0,1-.22-.09.28.28,0,0,1-.1-.22V10a.3.3,0,0,1,.1-.23.29.29,0,0,1,.22-.09h5a.31.31,0,0,1,.22.09.33.33,0,0,1,.09.23.29.29,0,0,1-.09.21.35.35,0,0,1-.22.08H53.19V15h6.38a.27.27,0,0,1,.3.3.31.31,0,0,1-.09.22.26.26,0,0,1-.21.09ZM54.4,3.37a.26.26,0,0,1-.21-.1.33.33,0,0,1-.08-.22.26.26,0,0,1,.29-.29h5.17a.33.33,0,0,1,.22.08.29.29,0,0,1,.09.21.29.29,0,0,1-.09.22.27.27,0,0,1-.22.1Zm5.13,1a.33.33,0,0,1,.23.09.31.31,0,0,1,.09.22.26.26,0,0,1-.09.21.33.33,0,0,1-.23.09H54.77V7a.31.31,0,0,1-.31.31.26.26,0,0,1-.21-.09A.31.31,0,0,1,54.16,7V4.67a.31.31,0,0,1,.09-.22.26.26,0,0,1,.21-.09ZM54.46,11a.35.35,0,0,1,.22.08.3.3,0,0,1,.09.23v2.17h3.68a.29.29,0,0,1,.22.09.31.31,0,0,1,.09.22.29.29,0,0,1-.09.22.33.33,0,0,1-.22.08h-4a.27.27,0,0,1-.3-.3V11.31C54.16,11.1,54.26,11,54.46,11Zm5.13,2.46a.26.26,0,0,1,.18.16.31.31,0,0,1,0,.25v0a.32.32,0,0,1-.31.22.46.46,0,0,1-.28-.18.3.3,0,0,1,0-.26.32.32,0,0,1,.31-.23Z"/>
      <path class="cls-2" d="M62.07,15.6c-.24-.08-.33-.21-.27-.41L66.32,3a.31.31,0,0,1,.29-.21h.26a.31.31,0,0,1,.3.21l2.19,6.67a.38.38,0,0,1,0,.24.32.32,0,0,1-.19.15h-.09a.32.32,0,0,1-.29-.22l-2-6.22L62.37,15.41A.32.32,0,0,1,62.07,15.6Zm1.73,0a.39.39,0,0,1-.27-.17A.33.33,0,0,1,63.8,15h.11a.37.37,0,0,1,.19.18.33.33,0,0,1,0,.24v0A.31.31,0,0,1,63.8,15.63Zm.33-1c-.24-.07-.34-.21-.27-.4l2.55-7.54a.34.34,0,0,1,.3-.21h.09a.29.29,0,0,1,.18.16.27.27,0,0,1,0,.23l-2.57,7.54A.32.32,0,0,1,64.13,14.62Zm6.38,0a.24.24,0,0,1-.27-.2L69.78,13H66.12a.26.26,0,0,1-.21-.09.31.31,0,0,1-.09-.22.27.27,0,0,1,.3-.3H70a.31.31,0,0,1,.29.21l.52,1.6a.29.29,0,0,1,0,.22.28.28,0,0,1-.18.14Zm2,1a.31.31,0,0,1-.29-.19l-1.47-4H66.63a.3.3,0,0,1-.23-.09.33.33,0,0,1-.08-.22c0-.2.1-.29.31-.29h4.31a.29.29,0,0,1,.27.16l1.55,4.23a.27.27,0,0,1-.19.39Zm-2-5.5a.32.32,0,0,1-.3-.2L68.33,4.25a.27.27,0,0,1,.18-.39l.09,0a.29.29,0,0,1,.3.21l1.85,5.64a.28.28,0,0,1,0,.24.25.25,0,0,1-.18.15Z"/>
      <path class="cls-2" d="M79.64,15.61a.28.28,0,0,1-.3-.2L75,3.26A.33.33,0,0,1,75,3a.38.38,0,0,1,.16-.17h.11a.28.28,0,0,1,.28.21l4.34,12.15a.31.31,0,0,1-.18.41Zm1.39,0a.3.3,0,0,1-.29-.22L77.1,4.53a.27.27,0,0,1,.18-.39l.09,0a.28.28,0,0,1,.3.2l3.36,10L85,3.05a.26.26,0,0,1,.27-.22h.11a.3.3,0,0,1,.17.16.31.31,0,0,1,0,.23L81.31,15.39A.26.26,0,0,1,81,15.61ZM81,10.85a.37.37,0,0,1-.27-.15.32.32,0,0,1,0-.23L82.85,4.1a.31.31,0,0,1,.3-.2.14.14,0,0,1,.09,0,.23.23,0,0,1,.18.15.26.26,0,0,1,0,.23l-2.19,6.35A.31.31,0,0,1,81,10.85Zm2.56-7.37a.46.46,0,0,1-.28-.18.34.34,0,0,1,0-.26c0-.11.09-.18.17-.2a1,1,0,0,1,.26,0,.39.39,0,0,1,.18.18.36.36,0,0,1,0,.25v0A.33.33,0,0,1,83.52,3.48Z"/>
      <path class="cls-2" d="M89.62,14.27V9.51H88.24a.26.26,0,0,1-.29-.3V3.05A.3.3,0,0,1,88,2.83a.29.29,0,0,1,.21-.09.29.29,0,0,1,.22.09.31.31,0,0,1,.09.22V8.9h1.37a.31.31,0,0,1,.31.31v5.06a.26.26,0,0,1-.09.21.33.33,0,0,1-.22.09A.27.27,0,0,1,89.62,14.27ZM88,10.87c0-.2.09-.29.29-.29s.31.09.31.29v4.45c0,.2-.1.29-.31.29s-.29-.09-.29-.29Zm1.83,4.74a.28.28,0,0,1-.18-.16.39.39,0,0,1,0-.26v0a.33.33,0,0,1,.32-.22H90a.31.31,0,0,1,.2.17.36.36,0,0,1,0,.25v0a.28.28,0,0,1-.31.22Zm.43-8a.29.29,0,0,1-.09.21.37.37,0,0,1-.22.08.26.26,0,0,1-.3-.29V4.41a.37.37,0,0,1,.08-.22.29.29,0,0,1,.22-.09.31.31,0,0,1,.31.31Z"/>
      <path class="cls-2" d="M102.22,5.63a.25.25,0,0,1,0,.42l-8.07,9H102a.35.35,0,0,1,.22.08.29.29,0,0,1,.09.21.29.29,0,0,1-.09.22.31.31,0,0,1-.22.09H93.5a.24.24,0,0,1-.27-.18.27.27,0,0,1,0-.33l8.54-9.45a.26.26,0,0,1,.22-.1A.28.28,0,0,1,102.22,5.63Zm.22-2.7a.27.27,0,0,1,0,.33L94,12.56a.33.33,0,0,1-.24.11.43.43,0,0,1-.21-.09.35.35,0,0,1-.1-.21.25.25,0,0,1,.09-.21l7.92-8.81H93.7a.26.26,0,0,1-.29-.3.35.35,0,0,1,.08-.22.29.29,0,0,1,.21-.09h8.46A.26.26,0,0,1,102.44,2.93ZM98,5H95c-.21,0-.31-.1-.31-.3a.35.35,0,0,1,.08-.22A.3.3,0,0,1,95,4.34H98a.29.29,0,0,1,.22.09.28.28,0,0,1,.1.22.27.27,0,0,1-.1.22A.33.33,0,0,1,98,5Zm-1.27,8.44h4.16a.33.33,0,0,1,.22.08.31.31,0,0,1,0,.44.29.29,0,0,1-.22.09H96.77a.33.33,0,0,1-.22-.09.31.31,0,0,1,0-.44A.37.37,0,0,1,96.77,13.39Zm5.3,0a.26.26,0,0,1,.18.16.33.33,0,0,1,0,.26A.27.27,0,0,1,102,14a.44.44,0,0,1-.28-.17.31.31,0,0,1,0-.25v0a.32.32,0,0,1,.31-.22Z"/>
    </g>
  </g>
</svg>